<mxfile host="app.diagrams.net" modified="2021-10-01T02:49:43.019Z" agent="5.0 (Windows NT 6.3; Win64; x64) AppleWebKit/537.36 (KHTML, like Gecko) Chrome/94.0.4606.61 Safari/537.36" etag="BKas9EGNVNe5IAWehZiZ" version="15.4.0" type="github" pages="3">
  <diagram id="w9EujwIsTOtrT2EHcPRo" name="Page-1">
    <mxGraphModel dx="1240" dy="643" grid="0" gridSize="10" guides="1" tooltips="1" connect="1" arrows="1" fold="1" page="1" pageScale="1" pageWidth="850" pageHeight="1100" math="0" shadow="0">
      <root>
        <mxCell id="0" />
        <mxCell id="1" parent="0" />
        <mxCell id="wi3G9QbHzwilc2W6x5uC-1" value="&lt;font style=&quot;font-size: 15px&quot;&gt;Global: Constant Real TIP_726=0.15&lt;br&gt;&lt;div style=&quot;text-align: left&quot;&gt;&lt;span&gt;Constant Real SALESTAX_726=0.07&lt;/span&gt;&lt;/div&gt;&lt;/font&gt;" style="text;html=1;strokeColor=none;fillColor=none;align=center;verticalAlign=middle;whiteSpace=wrap;rounded=0;" vertex="1" parent="1">
          <mxGeometry x="208.75" y="30" width="360" height="40" as="geometry" />
        </mxCell>
        <mxCell id="wi3G9QbHzwilc2W6x5uC-2" value="main()" style="strokeWidth=2;html=1;shape=mxgraph.flowchart.terminator;whiteSpace=wrap;fontSize=14;" vertex="1" parent="1">
          <mxGeometry x="328.75" y="90" width="100" height="40" as="geometry" />
        </mxCell>
        <mxCell id="wi3G9QbHzwilc2W6x5uC-12" style="edgeStyle=orthogonalEdgeStyle;rounded=0;orthogonalLoop=1;jettySize=auto;html=1;exitX=0.5;exitY=1;exitDx=0;exitDy=0;entryX=0.5;entryY=0;entryDx=0;entryDy=0;fontSize=14;" edge="1" parent="1" source="wi3G9QbHzwilc2W6x5uC-3" target="wi3G9QbHzwilc2W6x5uC-5">
          <mxGeometry relative="1" as="geometry" />
        </mxCell>
        <mxCell id="wi3G9QbHzwilc2W6x5uC-3" value="&lt;font style=&quot;font-size: 15px&quot;&gt;&lt;span&gt;Declare&amp;nbsp;&lt;/span&gt;&lt;span&gt;Real foodCharge_726&amp;nbsp;&lt;br&gt;&lt;/span&gt;&lt;span&gt;Declare&amp;nbsp;&lt;/span&gt;&lt;span&gt;Real tipGiven_726&lt;br&gt;&lt;/span&gt;&lt;span&gt;Declare&amp;nbsp;&lt;/span&gt;&lt;span&gt;Real salesTax_726&lt;br&gt;&lt;/span&gt;&lt;span style=&quot;line-height: 115%&quot;&gt;Declare Real totalAmount_726&lt;/span&gt;&lt;/font&gt;" style="rounded=0;whiteSpace=wrap;html=1;strokeWidth=2;" vertex="1" parent="1">
          <mxGeometry x="258.75" y="151" width="240" height="110" as="geometry" />
        </mxCell>
        <mxCell id="wi3G9QbHzwilc2W6x5uC-13" style="edgeStyle=orthogonalEdgeStyle;rounded=0;orthogonalLoop=1;jettySize=auto;html=1;exitX=0.5;exitY=1;exitDx=0;exitDy=0;fontSize=14;" edge="1" parent="1" source="wi3G9QbHzwilc2W6x5uC-5" target="wi3G9QbHzwilc2W6x5uC-6">
          <mxGeometry relative="1" as="geometry" />
        </mxCell>
        <mxCell id="wi3G9QbHzwilc2W6x5uC-5" value="&lt;p class=&quot;Default&quot; style=&quot;margin-left: 36.0pt&quot;&gt;&lt;span style=&quot;font-size: 11.5pt&quot;&gt;Call promptUser_726(foodCharge_726)&amp;nbsp;&lt;/span&gt;&lt;/p&gt;" style="shape=process;whiteSpace=wrap;html=1;backgroundOutline=1;strokeWidth=2;verticalAlign=middle;spacing=-3;labelPosition=center;verticalLabelPosition=middle;align=center;spacingTop=-4;spacingLeft=-40;size=0.0641025641025641;" vertex="1" parent="1">
          <mxGeometry x="198.75" y="290" width="360" height="50" as="geometry" />
        </mxCell>
        <mxCell id="wi3G9QbHzwilc2W6x5uC-14" style="edgeStyle=orthogonalEdgeStyle;rounded=0;orthogonalLoop=1;jettySize=auto;html=1;exitX=0.5;exitY=1;exitDx=0;exitDy=0;entryX=0.5;entryY=0;entryDx=0;entryDy=0;fontSize=14;" edge="1" parent="1" source="wi3G9QbHzwilc2W6x5uC-6" target="wi3G9QbHzwilc2W6x5uC-7">
          <mxGeometry relative="1" as="geometry" />
        </mxCell>
        <mxCell id="wi3G9QbHzwilc2W6x5uC-6" value="&lt;p class=&quot;Default&quot; style=&quot;margin-left: 36.0pt&quot;&gt;&lt;span style=&quot;font-size: 11.5pt&quot;&gt;Call calcTip_726(foodCharge_726, tipGiven_726)&lt;/span&gt;&lt;/p&gt;" style="shape=process;whiteSpace=wrap;html=1;backgroundOutline=1;strokeWidth=2;verticalAlign=middle;spacing=-3;labelPosition=center;verticalLabelPosition=middle;align=center;spacingTop=-4;spacingLeft=-46;size=0.05128205128205128;" vertex="1" parent="1">
          <mxGeometry x="183.75" y="370" width="390" height="50" as="geometry" />
        </mxCell>
        <mxCell id="wi3G9QbHzwilc2W6x5uC-15" style="edgeStyle=orthogonalEdgeStyle;rounded=0;orthogonalLoop=1;jettySize=auto;html=1;exitX=0.5;exitY=1;exitDx=0;exitDy=0;entryX=0.5;entryY=0;entryDx=0;entryDy=0;fontSize=14;" edge="1" parent="1" source="wi3G9QbHzwilc2W6x5uC-7" target="wi3G9QbHzwilc2W6x5uC-8">
          <mxGeometry relative="1" as="geometry" />
        </mxCell>
        <mxCell id="wi3G9QbHzwilc2W6x5uC-7" value="&lt;p class=&quot;Default&quot; style=&quot;margin-left: 36.0pt&quot;&gt;&lt;span style=&quot;font-size: 11.5pt&quot;&gt;Call calcTax_726(foodCharge_726, salesTax_726)&amp;nbsp;&lt;/span&gt;&lt;/p&gt;" style="shape=process;whiteSpace=wrap;html=1;backgroundOutline=1;strokeWidth=2;verticalAlign=middle;spacing=-3;labelPosition=center;verticalLabelPosition=middle;align=center;spacingTop=-4;spacingLeft=-40;size=0.05128205128205128;" vertex="1" parent="1">
          <mxGeometry x="180" y="450" width="397.5" height="50" as="geometry" />
        </mxCell>
        <mxCell id="wi3G9QbHzwilc2W6x5uC-16" style="edgeStyle=orthogonalEdgeStyle;rounded=0;orthogonalLoop=1;jettySize=auto;html=1;exitX=0.5;exitY=1;exitDx=0;exitDy=0;entryX=0.5;entryY=0;entryDx=0;entryDy=0;fontSize=14;" edge="1" parent="1" source="wi3G9QbHzwilc2W6x5uC-8" target="wi3G9QbHzwilc2W6x5uC-9">
          <mxGeometry relative="1" as="geometry" />
        </mxCell>
        <mxCell id="wi3G9QbHzwilc2W6x5uC-8" value="&lt;p class=&quot;Default&quot; style=&quot;margin-left: 36.0pt&quot;&gt;&lt;span style=&quot;font-size: 11.5pt&quot;&gt;Call calcTotal_726(foodCharge_726, tipGiven_726, salesTax_726, totalAmount_726)&lt;/span&gt;&lt;/p&gt;" style="shape=process;whiteSpace=wrap;html=1;backgroundOutline=1;strokeWidth=2;verticalAlign=middle;spacing=-3;labelPosition=center;verticalLabelPosition=middle;align=center;spacingTop=-4;spacingLeft=-45;size=0.05128205128205128;" vertex="1" parent="1">
          <mxGeometry x="180" y="525" width="397.5" height="50" as="geometry" />
        </mxCell>
        <mxCell id="wi3G9QbHzwilc2W6x5uC-17" style="edgeStyle=orthogonalEdgeStyle;rounded=0;orthogonalLoop=1;jettySize=auto;html=1;exitX=0.5;exitY=1;exitDx=0;exitDy=0;entryX=0.5;entryY=0;entryDx=0;entryDy=0;entryPerimeter=0;fontSize=14;" edge="1" parent="1" source="wi3G9QbHzwilc2W6x5uC-9" target="wi3G9QbHzwilc2W6x5uC-10">
          <mxGeometry relative="1" as="geometry" />
        </mxCell>
        <mxCell id="wi3G9QbHzwilc2W6x5uC-9" value="&lt;p class=&quot;Default&quot; style=&quot;margin-left: 36.0pt&quot;&gt;&lt;span style=&quot;font-size: 15px ; line-height: 115%&quot;&gt;Call displayBill_726(foodCharge_726, tipGiven_726, salesTax_726, totalAmount_726)&lt;/span&gt;&lt;br&gt;&lt;/p&gt;" style="shape=process;whiteSpace=wrap;html=1;backgroundOutline=1;strokeWidth=2;verticalAlign=middle;spacing=-3;labelPosition=center;verticalLabelPosition=middle;align=center;spacingTop=-4;spacingLeft=-45;size=0.05128205128205128;" vertex="1" parent="1">
          <mxGeometry x="180" y="610" width="397.5" height="50" as="geometry" />
        </mxCell>
        <mxCell id="wi3G9QbHzwilc2W6x5uC-10" value="End" style="strokeWidth=2;html=1;shape=mxgraph.flowchart.terminator;whiteSpace=wrap;fontSize=14;" vertex="1" parent="1">
          <mxGeometry x="328.75" y="690" width="100" height="40" as="geometry" />
        </mxCell>
        <mxCell id="wi3G9QbHzwilc2W6x5uC-11" value="" style="endArrow=classic;html=1;rounded=0;fontSize=14;edgeStyle=orthogonalEdgeStyle;entryX=0.5;entryY=0;entryDx=0;entryDy=0;exitX=0.5;exitY=1;exitDx=0;exitDy=0;exitPerimeter=0;" edge="1" parent="1" source="wi3G9QbHzwilc2W6x5uC-2" target="wi3G9QbHzwilc2W6x5uC-3">
          <mxGeometry width="50" height="50" relative="1" as="geometry">
            <mxPoint x="330" y="40" as="sourcePoint" />
            <mxPoint x="380" y="-10" as="targetPoint" />
          </mxGeometry>
        </mxCell>
      </root>
    </mxGraphModel>
  </diagram>
  <diagram id="-IZ9vcqNL4fEKL3tqvxc" name="Page-2">
    <mxGraphModel dx="868" dy="450" grid="0" gridSize="10" guides="1" tooltips="1" connect="1" arrows="1" fold="1" page="1" pageScale="1" pageWidth="850" pageHeight="1100" math="0" shadow="0">
      <root>
        <mxCell id="bxxBFr2ZgURbl8WlymN4-0" />
        <mxCell id="bxxBFr2ZgURbl8WlymN4-1" parent="bxxBFr2ZgURbl8WlymN4-0" />
        <mxCell id="xO7aYCO_zBsGIf4l3hgQ-5" style="edgeStyle=orthogonalEdgeStyle;rounded=0;orthogonalLoop=1;jettySize=auto;html=1;exitX=0.5;exitY=1;exitDx=0;exitDy=0;exitPerimeter=0;fontSize=14;" edge="1" parent="bxxBFr2ZgURbl8WlymN4-1" source="xO7aYCO_zBsGIf4l3hgQ-0" target="xO7aYCO_zBsGIf4l3hgQ-3">
          <mxGeometry relative="1" as="geometry" />
        </mxCell>
        <mxCell id="xO7aYCO_zBsGIf4l3hgQ-0" value="&lt;span style=&quot;font-size: 11.5pt ; line-height: 115%&quot;&gt;promptUser_726(Real&lt;br&gt;Ref foodCharge_726)&lt;/span&gt;" style="strokeWidth=2;html=1;shape=mxgraph.flowchart.terminator;whiteSpace=wrap;fontSize=14;verticalAlign=middle;" vertex="1" parent="bxxBFr2ZgURbl8WlymN4-1">
          <mxGeometry x="160" y="40" width="210" height="60" as="geometry" />
        </mxCell>
        <mxCell id="xO7aYCO_zBsGIf4l3hgQ-7" style="edgeStyle=orthogonalEdgeStyle;rounded=0;orthogonalLoop=1;jettySize=auto;html=1;exitX=0.5;exitY=1;exitDx=0;exitDy=0;entryX=0.5;entryY=0;entryDx=0;entryDy=0;entryPerimeter=0;fontSize=14;" edge="1" parent="bxxBFr2ZgURbl8WlymN4-1" source="xO7aYCO_zBsGIf4l3hgQ-2" target="xO7aYCO_zBsGIf4l3hgQ-4">
          <mxGeometry relative="1" as="geometry" />
        </mxCell>
        <mxCell id="xO7aYCO_zBsGIf4l3hgQ-2" value="&lt;p class=&quot;Default&quot; style=&quot;margin-left: 36.0pt&quot;&gt;&lt;span style=&quot;font-size: 11.5pt&quot;&gt;Input foodCharge_726&amp;nbsp;&lt;/span&gt;&lt;/p&gt;" style="shape=parallelogram;perimeter=parallelogramPerimeter;whiteSpace=wrap;html=1;fixedSize=1;fontSize=14;strokeWidth=2;verticalAlign=middle;spacingLeft=-40;" vertex="1" parent="bxxBFr2ZgURbl8WlymN4-1">
          <mxGeometry x="150" y="210" width="230" height="50" as="geometry" />
        </mxCell>
        <mxCell id="xO7aYCO_zBsGIf4l3hgQ-6" style="edgeStyle=orthogonalEdgeStyle;rounded=0;orthogonalLoop=1;jettySize=auto;html=1;exitX=0.5;exitY=1;exitDx=0;exitDy=0;entryX=0.5;entryY=0;entryDx=0;entryDy=0;fontSize=14;" edge="1" parent="bxxBFr2ZgURbl8WlymN4-1" source="xO7aYCO_zBsGIf4l3hgQ-3" target="xO7aYCO_zBsGIf4l3hgQ-2">
          <mxGeometry relative="1" as="geometry" />
        </mxCell>
        <mxCell id="xO7aYCO_zBsGIf4l3hgQ-3" value="&lt;span style=&quot;font-size: 11.5pt ; line-height: 115%&quot;&gt;Display&lt;br&gt;&quot;Enter the charge of food :$&quot;&lt;/span&gt;" style="shape=parallelogram;perimeter=parallelogramPerimeter;whiteSpace=wrap;html=1;fixedSize=1;fontSize=14;strokeWidth=2;verticalAlign=middle;" vertex="1" parent="bxxBFr2ZgURbl8WlymN4-1">
          <mxGeometry x="150" y="130" width="230" height="50" as="geometry" />
        </mxCell>
        <mxCell id="xO7aYCO_zBsGIf4l3hgQ-4" value="Return" style="strokeWidth=2;html=1;shape=mxgraph.flowchart.terminator;whiteSpace=wrap;fontSize=14;verticalAlign=middle;" vertex="1" parent="bxxBFr2ZgURbl8WlymN4-1">
          <mxGeometry x="210" y="290" width="110" height="40" as="geometry" />
        </mxCell>
        <mxCell id="xO7aYCO_zBsGIf4l3hgQ-8" style="edgeStyle=orthogonalEdgeStyle;rounded=0;orthogonalLoop=1;jettySize=auto;html=1;exitX=0.5;exitY=1;exitDx=0;exitDy=0;exitPerimeter=0;fontSize=14;entryX=0.5;entryY=0;entryDx=0;entryDy=0;" edge="1" parent="bxxBFr2ZgURbl8WlymN4-1" source="xO7aYCO_zBsGIf4l3hgQ-9" target="xO7aYCO_zBsGIf4l3hgQ-15">
          <mxGeometry relative="1" as="geometry">
            <mxPoint x="529.25" y="160" as="targetPoint" />
          </mxGeometry>
        </mxCell>
        <mxCell id="xO7aYCO_zBsGIf4l3hgQ-9" value="&lt;span style=&quot;font-size: 11.5pt ; line-height: 115%&quot;&gt;calcTip_726(Real&lt;br/&gt;foodCharge_726, Real Ref tipGiven_726)&lt;/span&gt;" style="strokeWidth=2;html=1;shape=mxgraph.flowchart.terminator;whiteSpace=wrap;fontSize=14;verticalAlign=middle;" vertex="1" parent="bxxBFr2ZgURbl8WlymN4-1">
          <mxGeometry x="424.25" y="70" width="210" height="60" as="geometry" />
        </mxCell>
        <mxCell id="xO7aYCO_zBsGIf4l3hgQ-10" style="edgeStyle=orthogonalEdgeStyle;rounded=0;orthogonalLoop=1;jettySize=auto;html=1;exitX=0.5;exitY=1;exitDx=0;exitDy=0;entryX=0.5;entryY=0;entryDx=0;entryDy=0;entryPerimeter=0;fontSize=14;" edge="1" parent="bxxBFr2ZgURbl8WlymN4-1" source="xO7aYCO_zBsGIf4l3hgQ-15" target="xO7aYCO_zBsGIf4l3hgQ-14">
          <mxGeometry relative="1" as="geometry">
            <mxPoint x="529.25" y="290" as="sourcePoint" />
          </mxGeometry>
        </mxCell>
        <mxCell id="xO7aYCO_zBsGIf4l3hgQ-14" value="Return" style="strokeWidth=2;html=1;shape=mxgraph.flowchart.terminator;whiteSpace=wrap;fontSize=14;verticalAlign=middle;" vertex="1" parent="bxxBFr2ZgURbl8WlymN4-1">
          <mxGeometry x="474.25" y="239" width="110" height="40" as="geometry" />
        </mxCell>
        <mxCell id="xO7aYCO_zBsGIf4l3hgQ-15" value="&lt;span style=&quot;font-size: 11.5pt ; line-height: 115%&quot;&gt;tipGiven_726 = Input foodCharge_726 * TIP_726&lt;/span&gt;" style="rounded=0;whiteSpace=wrap;html=1;fontSize=14;strokeWidth=2;verticalAlign=middle;" vertex="1" parent="bxxBFr2ZgURbl8WlymN4-1">
          <mxGeometry x="411" y="154" width="240.5" height="61" as="geometry" />
        </mxCell>
        <mxCell id="xO7aYCO_zBsGIf4l3hgQ-17" style="edgeStyle=orthogonalEdgeStyle;rounded=0;orthogonalLoop=1;jettySize=auto;html=1;exitX=0.5;exitY=1;exitDx=0;exitDy=0;exitPerimeter=0;fontSize=14;entryX=0.5;entryY=0;entryDx=0;entryDy=0;" edge="1" parent="bxxBFr2ZgURbl8WlymN4-1" source="xO7aYCO_zBsGIf4l3hgQ-18" target="xO7aYCO_zBsGIf4l3hgQ-21">
          <mxGeometry relative="1" as="geometry">
            <mxPoint x="192.25" y="512" as="targetPoint" />
          </mxGeometry>
        </mxCell>
        <mxCell id="xO7aYCO_zBsGIf4l3hgQ-18" value="&lt;p class=&quot;Default&quot;&gt;&lt;span style=&quot;font-size: 11.5pt&quot;&gt;calcTax_726(Real foodCharge_726,&lt;br/&gt;Real Ref salesTax_726)&amp;nbsp;&lt;/span&gt;&lt;/p&gt;" style="strokeWidth=2;html=1;shape=mxgraph.flowchart.terminator;whiteSpace=wrap;fontSize=14;verticalAlign=middle;spacing=3;spacingBottom=3;spacingTop=-2;" vertex="1" parent="bxxBFr2ZgURbl8WlymN4-1">
          <mxGeometry x="87.25" y="411" width="210" height="75" as="geometry" />
        </mxCell>
        <mxCell id="xO7aYCO_zBsGIf4l3hgQ-19" style="edgeStyle=orthogonalEdgeStyle;rounded=0;orthogonalLoop=1;jettySize=auto;html=1;exitX=0.5;exitY=1;exitDx=0;exitDy=0;entryX=0.5;entryY=0;entryDx=0;entryDy=0;entryPerimeter=0;fontSize=14;" edge="1" parent="bxxBFr2ZgURbl8WlymN4-1" source="xO7aYCO_zBsGIf4l3hgQ-21" target="xO7aYCO_zBsGIf4l3hgQ-20">
          <mxGeometry relative="1" as="geometry">
            <mxPoint x="192.25" y="642" as="sourcePoint" />
          </mxGeometry>
        </mxCell>
        <mxCell id="xO7aYCO_zBsGIf4l3hgQ-20" value="Return" style="strokeWidth=2;html=1;shape=mxgraph.flowchart.terminator;whiteSpace=wrap;fontSize=14;verticalAlign=middle;" vertex="1" parent="bxxBFr2ZgURbl8WlymN4-1">
          <mxGeometry x="137.25" y="591" width="110" height="40" as="geometry" />
        </mxCell>
        <mxCell id="xO7aYCO_zBsGIf4l3hgQ-21" value="&lt;span style=&quot;font-size: 11.5pt ; line-height: 115%&quot;&gt;salesTax_726 =&amp;nbsp;foodCharge_726 * SALESTAX_726&lt;/span&gt;" style="rounded=0;whiteSpace=wrap;html=1;fontSize=14;strokeWidth=2;verticalAlign=middle;" vertex="1" parent="bxxBFr2ZgURbl8WlymN4-1">
          <mxGeometry x="66" y="506" width="256" height="61" as="geometry" />
        </mxCell>
        <mxCell id="xO7aYCO_zBsGIf4l3hgQ-22" style="edgeStyle=orthogonalEdgeStyle;rounded=0;orthogonalLoop=1;jettySize=auto;html=1;exitX=0.5;exitY=1;exitDx=0;exitDy=0;exitPerimeter=0;fontSize=14;entryX=0.5;entryY=0;entryDx=0;entryDy=0;" edge="1" parent="bxxBFr2ZgURbl8WlymN4-1" source="xO7aYCO_zBsGIf4l3hgQ-23" target="xO7aYCO_zBsGIf4l3hgQ-26">
          <mxGeometry relative="1" as="geometry">
            <mxPoint x="465.25" y="512" as="targetPoint" />
          </mxGeometry>
        </mxCell>
        <mxCell id="xO7aYCO_zBsGIf4l3hgQ-23" value="&lt;p class=&quot;Default&quot;&gt;&lt;span style=&quot;font-size: 11.5pt ; line-height: 115%&quot;&gt;calcTotal(Real&lt;br&gt;foodCharge_726, Real tipGiven_726, Real salesTax_726, Real Ref totalAmount_726)&lt;/span&gt;&lt;br&gt;&lt;/p&gt;" style="strokeWidth=2;html=1;shape=mxgraph.flowchart.terminator;whiteSpace=wrap;fontSize=14;verticalAlign=middle;spacing=3;spacingBottom=3;spacingTop=-2;" vertex="1" parent="bxxBFr2ZgURbl8WlymN4-1">
          <mxGeometry x="341" y="397" width="256" height="89" as="geometry" />
        </mxCell>
        <mxCell id="xO7aYCO_zBsGIf4l3hgQ-24" style="edgeStyle=orthogonalEdgeStyle;rounded=0;orthogonalLoop=1;jettySize=auto;html=1;exitX=0.5;exitY=1;exitDx=0;exitDy=0;entryX=0.5;entryY=0;entryDx=0;entryDy=0;entryPerimeter=0;fontSize=14;" edge="1" parent="bxxBFr2ZgURbl8WlymN4-1" source="xO7aYCO_zBsGIf4l3hgQ-26" target="xO7aYCO_zBsGIf4l3hgQ-25">
          <mxGeometry relative="1" as="geometry">
            <mxPoint x="465.25" y="642" as="sourcePoint" />
          </mxGeometry>
        </mxCell>
        <mxCell id="xO7aYCO_zBsGIf4l3hgQ-25" value="Return" style="strokeWidth=2;html=1;shape=mxgraph.flowchart.terminator;whiteSpace=wrap;fontSize=14;verticalAlign=middle;" vertex="1" parent="bxxBFr2ZgURbl8WlymN4-1">
          <mxGeometry x="410.25" y="591" width="110" height="40" as="geometry" />
        </mxCell>
        <mxCell id="xO7aYCO_zBsGIf4l3hgQ-26" value="&lt;span style=&quot;font-size: 11.5pt ; line-height: 115%&quot;&gt;totalAmount_726= foodCharge_726 + tipGiven_726 + salesTax_726&lt;/span&gt;" style="rounded=0;whiteSpace=wrap;html=1;fontSize=14;strokeWidth=2;verticalAlign=middle;" vertex="1" parent="bxxBFr2ZgURbl8WlymN4-1">
          <mxGeometry x="339" y="506" width="256" height="61" as="geometry" />
        </mxCell>
      </root>
    </mxGraphModel>
  </diagram>
  <diagram id="3sePiOHF_Aq31Xwcjf2B" name="Page-3">
    <mxGraphModel dx="1320" dy="484" grid="0" gridSize="10" guides="1" tooltips="1" connect="1" arrows="1" fold="1" page="1" pageScale="1" pageWidth="850" pageHeight="1100" math="0" shadow="0">
      <root>
        <mxCell id="gq5GpjecqFWvMuE5Oycr-0" />
        <mxCell id="gq5GpjecqFWvMuE5Oycr-1" parent="gq5GpjecqFWvMuE5Oycr-0" />
        <mxCell id="97JhnB0fZ6ebF50D1BvM-0" style="edgeStyle=orthogonalEdgeStyle;rounded=0;orthogonalLoop=1;jettySize=auto;html=1;exitX=0.5;exitY=1;exitDx=0;exitDy=0;exitPerimeter=0;fontSize=14;" edge="1" parent="gq5GpjecqFWvMuE5Oycr-1" source="97JhnB0fZ6ebF50D1BvM-1" target="97JhnB0fZ6ebF50D1BvM-5">
          <mxGeometry relative="1" as="geometry" />
        </mxCell>
        <mxCell id="97JhnB0fZ6ebF50D1BvM-1" value="&lt;span style=&quot;font-size: 11.5pt ; line-height: 115%&quot;&gt;displayBill_726(Real&lt;br&gt;foodCharge_726, Real tipGiven_726, Real salesTax_726, Real totalAmount_726)&lt;/span&gt;" style="strokeWidth=2;html=1;shape=mxgraph.flowchart.terminator;whiteSpace=wrap;fontSize=14;verticalAlign=middle;" vertex="1" parent="gq5GpjecqFWvMuE5Oycr-1">
          <mxGeometry x="120" y="40" width="270" height="90" as="geometry" />
        </mxCell>
        <mxCell id="97JhnB0fZ6ebF50D1BvM-8" style="edgeStyle=orthogonalEdgeStyle;rounded=0;orthogonalLoop=1;jettySize=auto;html=1;exitX=0.5;exitY=1;exitDx=0;exitDy=0;fontSize=14;" edge="1" parent="gq5GpjecqFWvMuE5Oycr-1" source="97JhnB0fZ6ebF50D1BvM-3" target="97JhnB0fZ6ebF50D1BvM-7">
          <mxGeometry relative="1" as="geometry" />
        </mxCell>
        <mxCell id="97JhnB0fZ6ebF50D1BvM-3" value="&lt;p class=&quot;Default&quot; style=&quot;margin-left: 36.0pt&quot;&gt;&lt;span style=&quot;font-size: 11.5pt ; line-height: 115%&quot;&gt;Display &quot;Tip : $&quot;, tipGiven_726&lt;/span&gt;&lt;br&gt;&lt;/p&gt;" style="shape=parallelogram;perimeter=parallelogramPerimeter;whiteSpace=wrap;html=1;fixedSize=1;fontSize=14;strokeWidth=2;verticalAlign=middle;spacingLeft=-40;" vertex="1" parent="gq5GpjecqFWvMuE5Oycr-1">
          <mxGeometry x="120" y="240" width="270" height="50" as="geometry" />
        </mxCell>
        <mxCell id="97JhnB0fZ6ebF50D1BvM-4" style="edgeStyle=orthogonalEdgeStyle;rounded=0;orthogonalLoop=1;jettySize=auto;html=1;exitX=0.5;exitY=1;exitDx=0;exitDy=0;entryX=0.5;entryY=0;entryDx=0;entryDy=0;fontSize=14;" edge="1" parent="gq5GpjecqFWvMuE5Oycr-1" source="97JhnB0fZ6ebF50D1BvM-5" target="97JhnB0fZ6ebF50D1BvM-3">
          <mxGeometry relative="1" as="geometry" />
        </mxCell>
        <mxCell id="97JhnB0fZ6ebF50D1BvM-5" value="&lt;span style=&quot;font-size: 11.5pt ; line-height: 115%&quot;&gt;Display &quot;Food Charges : $&quot;, foodCharge_726&lt;/span&gt;" style="shape=parallelogram;perimeter=parallelogramPerimeter;whiteSpace=wrap;html=1;fixedSize=1;fontSize=14;strokeWidth=2;verticalAlign=middle;" vertex="1" parent="gq5GpjecqFWvMuE5Oycr-1">
          <mxGeometry x="140" y="160" width="230" height="50" as="geometry" />
        </mxCell>
        <mxCell id="97JhnB0fZ6ebF50D1BvM-6" value="Return" style="strokeWidth=2;html=1;shape=mxgraph.flowchart.terminator;whiteSpace=wrap;fontSize=14;verticalAlign=middle;" vertex="1" parent="gq5GpjecqFWvMuE5Oycr-1">
          <mxGeometry x="200" y="480" width="110" height="40" as="geometry" />
        </mxCell>
        <mxCell id="97JhnB0fZ6ebF50D1BvM-11" style="edgeStyle=orthogonalEdgeStyle;rounded=0;orthogonalLoop=1;jettySize=auto;html=1;exitX=0.5;exitY=1;exitDx=0;exitDy=0;fontSize=14;" edge="1" parent="gq5GpjecqFWvMuE5Oycr-1" source="97JhnB0fZ6ebF50D1BvM-7" target="97JhnB0fZ6ebF50D1BvM-9">
          <mxGeometry relative="1" as="geometry" />
        </mxCell>
        <mxCell id="97JhnB0fZ6ebF50D1BvM-7" value="&lt;p class=&quot;Default&quot; style=&quot;margin-left: 36.0pt&quot;&gt;&lt;span style=&quot;font-size: 11.5pt ; line-height: 115%&quot;&gt;Display &quot;Tax : $&quot;, salesTax_726&lt;/span&gt;&lt;br&gt;&lt;/p&gt;" style="shape=parallelogram;perimeter=parallelogramPerimeter;whiteSpace=wrap;html=1;fixedSize=1;fontSize=14;strokeWidth=2;verticalAlign=middle;spacingLeft=-40;" vertex="1" parent="gq5GpjecqFWvMuE5Oycr-1">
          <mxGeometry x="120" y="320" width="270" height="50" as="geometry" />
        </mxCell>
        <mxCell id="97JhnB0fZ6ebF50D1BvM-12" style="edgeStyle=orthogonalEdgeStyle;rounded=0;orthogonalLoop=1;jettySize=auto;html=1;exitX=0.5;exitY=1;exitDx=0;exitDy=0;entryX=0.5;entryY=0;entryDx=0;entryDy=0;entryPerimeter=0;fontSize=14;" edge="1" parent="gq5GpjecqFWvMuE5Oycr-1" source="97JhnB0fZ6ebF50D1BvM-9" target="97JhnB0fZ6ebF50D1BvM-6">
          <mxGeometry relative="1" as="geometry" />
        </mxCell>
        <mxCell id="97JhnB0fZ6ebF50D1BvM-9" value="&lt;p class=&quot;Default&quot; style=&quot;margin-left: 36.0pt&quot;&gt;&lt;span style=&quot;font-size: 11.5pt ; line-height: 115%&quot;&gt;Display &quot;Total Amount : $&quot;, totalAmount_726&lt;/span&gt;&lt;br&gt;&lt;/p&gt;" style="shape=parallelogram;perimeter=parallelogramPerimeter;whiteSpace=wrap;html=1;fixedSize=1;fontSize=14;strokeWidth=2;verticalAlign=middle;spacingLeft=-40;" vertex="1" parent="gq5GpjecqFWvMuE5Oycr-1">
          <mxGeometry x="120" y="400" width="270" height="50" as="geometry" />
        </mxCell>
      </root>
    </mxGraphModel>
  </diagram>
</mxfile>
